<svg class="w-6 h-6" fill="currentColor" viewBox="0 0 24 24"><path d="M23.954 4.569c-.885.392-1.832.656-2.828.775 1.014-.608 1.793-1.57 2.163-2.723-.949.564-2.004.977-3.127 1.197-.897-.959-2.178-1.559-3.594-1.559-2.717 0-4.924 2.208-4.924 4.923 0 .386.044.76.127 1.122-4.09-.205-7.72-2.164-10.149-5.144-.424.724-.667 1.561-.667 2.457 0 1.694.863 3.184 2.177 4.058-.801-.025-1.555-.245-2.213-.612v.061c0 2.366 1.685 4.343 3.924 4.789-.411.112-.844.171-1.292.171-.315 0-.622-.03-.921-.086.623 1.951 2.428 3.374 4.568 3.414-1.675 1.314-3.786 2.099-6.078 2.099-.394 0-.779-.023-1.161-.068 2.168 1.389 4.742 2.201 7.508 2.201 9.01 0 13.935-7.466 13.935-13.935 0-.212-.005-.425-.014-.637.957-.693 1.785-1.56 2.438-2.549z"/></svg>